<svg width="14" height="12" viewBox="0 0 14 12" fill="none" xmlns="http://www.w3.org/2000/svg">
<path d="M7.38991 11.6864C7.45085 11.6476 8.88539 10.7313 10.3371 9.40246C11.2122 8.60084 11.917 7.81006 12.4295 7.05185C12.753 6.57273 13.0077 6.09827 13.1828 5.64086C13.3937 5.09352 13.5 4.55549 13.5 4.03916C13.5015 3.49182 13.3906 2.95999 13.1734 2.45916C12.9639 1.97793 12.6619 1.54185 12.2842 1.17532L7.38991 11.6864ZM7.38991 11.6864L7.01955 11.9221M7.38991 11.6864L7.01955 11.9221M12.7148 2.65845C12.5314 2.23726 12.267 1.85533 11.936 1.53413L11.9356 1.53374C11.6035 1.21076 11.2118 0.953903 10.7817 0.777308L10.781 0.777043C10.3348 0.593105 9.85599 0.498905 9.37253 0.50001L9.37139 0.500012C8.69165 0.500011 8.02963 0.684663 7.45505 1.03246L7.45504 1.03247C7.31757 1.11567 7.18737 1.20682 7.06426 1.3059L6.75077 1.5582L6.43729 1.3059C6.31417 1.20682 6.18398 1.11567 6.04651 1.03247L6.04649 1.03246C5.47191 0.684663 4.8099 0.500011 4.13016 0.500011C3.63983 0.500011 3.16708 0.592988 2.72051 0.777045L2.71997 0.777267C2.28816 0.95465 1.89974 1.20936 1.56579 1.53389L1.56511 1.53455L1.56511 1.53455C1.23393 1.85517 0.969594 2.23693 0.786877 2.65811L12.7148 2.65845ZM12.7148 2.65845C12.9048 3.09664 13.0013 3.5602 13 4.03773V4.03916C13 4.48648 12.9079 4.96361 12.7162 5.46104L12.7158 5.46218C12.557 5.8772 12.3218 6.3178 12.0153 6.77183C11.5302 7.48941 10.854 8.25093 9.99953 9.03364C8.57917 10.3337 7.17265 11.232 7.12157 11.2645L7.12147 11.2646L6.75209 11.4996L6.75208 11.4996L6.75171 11.4998L6.74999 11.5L6.74827 11.4998L6.7479 11.4996L6.7479 11.4996L6.37851 11.2646L6.37856 11.2645L6.37064 11.2597C6.37101 11.2599 6.37053 11.2596 6.3691 11.2587C6.36659 11.2571 6.36116 11.2537 6.3522 11.248C6.33937 11.2398 6.32137 11.2282 6.29852 11.2133C6.25285 11.1835 6.18835 11.1409 6.10769 11.0864C5.94633 10.9774 5.72084 10.8211 5.45235 10.625C4.91462 10.2322 4.20837 9.68232 3.50065 9.03382L3.5006 9.03377C2.6462 8.25111 1.96994 7.48962 1.48483 6.77207L12.7148 2.65845ZM7.01955 11.9221C6.85547 12.026 6.64451 12.026 6.48043 11.9221H7.01955ZM0.5 4.03916C0.5 3.56054 0.596785 3.09642 0.786861 2.65815L0.783745 5.46098C0.592036 4.96357 0.5 4.48646 0.5 4.03916ZM1.48481 6.77204C1.17888 6.31891 0.944679 5.87779 0.783769 5.46104L1.48481 6.77204Z" stroke="#ECECEC"/>
</svg>
